<svg width="512" height="512" viewBox="0 0 512 512" fill="none" xmlns="http://www.w3.org/2000/svg">
<path d="M256 464C370.875 464 464 370.875 464 256C464 141.125 370.875 48 256 48C141.125 48 48 141.125 48 256C48 370.875 141.125 464 256 464Z" stroke="#16213E" stroke-width="16" stroke-miterlimit="10"/>
<path d="M256 352C309.019 352 352 309.019 352 256C352 202.981 309.019 160 256 160C202.981 160 160 202.981 160 256C160 309.019 202.981 352 256 352Z" stroke="#16213E" stroke-width="16" stroke-miterlimit="10"/>
<path d="M256 288C273.673 288 288 273.673 288 256C288 238.327 273.673 224 256 224C238.327 224 224 238.327 224 256C224 273.673 238.327 288 256 288Z" fill="#16213E"/>
</svg>
