<?xml version="1.0" encoding="utf-8"?>
<!-- Generator: Adobe Illustrator 26.5.0, SVG Export Plug-In . SVG Version: 6.00 Build 0)  -->
<svg version="1.1" id="katman_2_00000065044157158316757670000000196998278911273378_"
	 xmlns="http://www.w3.org/2000/svg" xmlns:xlink="http://www.w3.org/1999/xlink" x="0px" y="0px" viewBox="0 0 360.7 79.1"
	 style="enable-background:new 0 0 360.7 79.1;" xml:space="preserve">
<style type="text/css">
	.st0{fill:#006D31;}
	.st1{fill:#E3321A;}
	.st2{display:none;}
	.st3{display:inline;}
	.st4{fill:#48AE4D;}
	.st5{fill:#46AE4E;}
	.st6{fill:#009245;}
	.st7{fill:#62B453;}
	.st8{fill:#010101;}
	.st9{display:inline;fill:#010101;stroke:#010101;stroke-width:0.75;stroke-miterlimit:10;}
	.st10{fill:#1D1D1B;}
	.st11{font-family:'Apple-Chancery';}
	.st12{font-size:45px;}
</style>
<g id="katman_1">
	<g>
		<g>
			<g>
				<g id="XMLID_00000053512031849155339470000008755821798126073997_">
					<g>
						<path class="st0" d="M23.7,34C22,45.6,39.2,54,36.4,64.7c-0.8,3.2-3.1,5.4-4.8,6.8C8.7,71.7-3.3,44.6,13.1,29.9
							C18,25.5,24.7,23,31.5,23C25.8,27.2,24.1,31.1,23.7,34L23.7,34z"/>
					</g>
					<g>
					</g>
				</g>
				<path class="st1" d="M31.5,23c22.9-0.1,34.6,27,18.1,41.7C44.7,69,38,71.5,31.2,71.5c5.8-4.2,7.4-8.1,7.9-10.9
					c1.8-11.7-15.4-20.1-12.5-30.8C27.4,26.6,29.7,24.4,31.5,23z"/>
			</g>
			<g class="st2">
				<g class="st3">
					<path class="st4" d="M26.3,4.6c0,0,4.3-3.7,8.5-2.7c0,0-2.7,0.1-4.3,2.5c0,0-2.6,2.8-4.3,1.9C26.3,6.3,25.3,5.2,26.3,4.6
						L26.3,4.6z"/>
					<path class="st5" d="M33.1,1.5l-7.3,2.5c0,0-3.6-1.4,1.2-3.3C27,0.7,32.8-0.9,33.1,1.5L33.1,1.5z"/>
					<path class="st6" d="M20.7,10.8c0,0-5.8-1.9-8.7-1.6c0,0,4.7,2.9,5.2,2.8C17.1,12,20.7,12.4,20.7,10.8L20.7,10.8z"/>
					<path class="st5" d="M39.1,11.1c0,0-3.2,0.6-6.4,3.5c0,0-1.7,2.9-4.4,3.1c0,0-2.7-1.5-0.3-3.6c0,0,4.9-1.6,6.1-2.7
						C34.2,11.3,37.5,9.3,39.1,11.1z"/>
					<path class="st6" d="M28.1,18.1l3.8-2.3l2-2.2l3.4-1.8c0,0,4-0.8,5,0.8c0,0-1.7-1.5-3.7-0.5c0,0-2.7,2.3-3,5c0,0-4,5-6.2,2.6
						L28.1,18.1L28.1,18.1z"/>
					<path class="st7" d="M28.4,1.3c0,0-3.5,0.4-2.5,1.6C25.9,2.9,27.6,2.1,28.4,1.3z"/>
					<path class="st7" d="M27.1,5.9c0,0,1.9-0.1,2.6-1.9C29.7,4.1,27.9,4.8,27.1,5.9z"/>
					<path class="st6" d="M12.2,17.1c0,0,5.8,8.1,10.6,4.5C22.8,21.6,14.6,17.3,12.2,17.1z"/>
					<path class="st5" d="M23.1,21.1c-2.6-5.7-10.7-4.8-10.7-4.8L23.1,21.1z"/>
					<path class="st5" d="M21.6,10.5c-6.2-5.8-10.1-1.4-10.1-1.4L18,9.7L21.6,10.5L21.6,10.5z"/>
					<path class="st8" d="M42.2,12.1l-0.3-0.4c-3.1-3.1-7.4-1.5-9.2-0.2c-0.6,0.4-1.8,0.9-1.8,0.9c-2.6,0.9-4,2-4.2,3.3
						c-0.1,1,0.6,1.7,1,2.1c-0.3,0.3-0.6,0.7-0.9,1.1c-0.2-1.1-0.6-2.5-1.4-4.1c0,0-2-2.7-2.7-5.2c0-0.1-0.9-2.5,1.9-4.1
						c0.3-0.2,0.6-0.3,0.9-0.5c-0.2,1.1,0.3,1.6,0.6,1.8C26.4,6.9,26.8,7,27.1,7c1.1,0,2.5-0.7,3.1-1.5c0.7-0.9,1.6-1.8,2.1-2.2
						c1.3-1.2,3.6-0.8,3.6-0.8c0.2,0,0.4-0.1,0.5-0.2s0-0.4-0.1-0.5c0,0-0.1-0.1-0.2-0.1c0,0-0.1-0.1-0.2-0.1c0,0,0,0,0,0
						c-0.8-0.4-2.4-1-3.1-1.1c-7-1.7-8.2,1.7-8.4,2.1c0,0,0,0.1,0,0.1c-0.1,0.4,0,0.8,0.2,1.2c0.1,0.2,0.4,0.4,0.6,0.5
						c-0.3,0.2-0.6,0.3-0.9,0.5c-3.5,2-2.3,5.1-2.3,5.1c0.1,0.4,0.3,0.9,0.5,1.3c-0.2-0.2-0.5-0.3-0.8-0.5c0-0.9-0.3-2.7-3.6-3.4
						c-2.8-0.6-7.7,1.2-9.3,2.3l0,0C8.5,9.7,8.5,9.8,8.4,9.8c0,0,0,0,0,0c0,0.1,0,0.1,0,0.2c0,0,0,0,0,0.1v0c0,0,0,0,0,0
						c0.1,0.1,0.1,0.1,0.2,0.2c0,0,0,0,0,0c0.1,0,0.2,0,0.3,0c0.1,0,0.2-0.1,0.3-0.1c0.8-0.1,3-0.3,6.4,1.4c0.1,0.1,1.6,0.9,3.2,0.9
						c0.9,0,1.7-0.3,2.3-1c1.2,0.8,1.9,1.5,2,1.6c0.7,1.2,1.3,2,1.3,2.1c2,3.6,1.4,5.6,0.9,7.5c0,0.2-0.1,0.4-0.1,0.5
						c-0.5-0.6-1.2-1.4-2-2c-0.1-1.4-0.8-2.6-2-3.5c-3.5-2.7-10.1-2-10.4-2c0,0,0,0,0,0c-0.1,0-0.1,0-0.2,0.1c0,0,0,0,0,0
						c-0.1,0-0.1,0.1-0.1,0.1c0,0,0,0,0,0c0,0,0,0,0,0s0,0,0,0c0,0.1,0,0.1,0,0.2c0,0,0,0,0,0c0,0.1,0.1,0.1,0.1,0.2c0,0,0,0,0,0
						c0.8,0.5,2.3,1.8,2.8,2.5c1.9,2.5,4,3.8,6.1,3.9c0.1,0,0.2,0,0.4,0c1.4,0,2.4-0.6,2.9-0.9c1.2,0.8,2,2.1,2.3,2.4c0,0,0,0,0,0
						c0.3-0.1,0.6-0.1,1-0.1c0-0.2,0.1-0.5,0.1-0.7c0.1-0.3,0.1-0.5,0.2-0.8c0.1-0.4,0.2-0.9,0.3-1.4c0,0,0,0,0,0
						c0.3-1.4,0.8-2.3,1.4-3c0.2,0.5,0.5,1,0.6,1.2c0.7,0.8,1.2,1.1,1.9,1.1c0.4,0,0.7-0.1,1.2-0.3c1.8-0.7,3.9-3,4.4-4.2
						c1.1-2.6,1.9-3.7,1.9-3.7c1.4-1.3,3.3-0.1,3.4,0c0.2,0.1,0.5,0.1,0.6-0.1C42.3,12.4,42.3,12.2,42.2,12.1L42.2,12.1z M31.7,2.8
						c-0.5,0.5-1.4,1.3-2.2,2.3c-0.6,0.8-2.3,1.4-2.9,1.1c-0.5-0.3-0.2-1.2,0-1.7c1.2-0.7,2.1-1.2,2.5-1.4c0.8-0.4,2.1-0.8,3.5-0.9
						C32.3,2.3,32,2.5,31.7,2.8L31.7,2.8z M25.1,2.8C25.1,2.8,25.1,2.8,25.1,2.8c0.1-0.3,0.3-0.9,1.2-1.4c0.9-0.6,2.8-1,6.2-0.2
						c0.1,0,0.2,0.1,0.4,0.1c-1.8,0.1-3.3,0.5-4.2,1.1c-0.4,0.2-1.4,0.7-2.7,1.5c-0.3-0.1-0.6-0.2-0.7-0.4
						C25.1,3.3,25.1,3.1,25.1,2.8z M16.2,11c-1.3-0.7-2.4-1.1-3.4-1.3c3.3-0.3,5.8,0.5,7.6,1.4C19.2,12.6,16.2,11,16.2,11z
						 M12.6,8.8c1.8-0.6,3.7-0.9,5.1-0.6c1.9,0.4,2.7,1.2,2.9,2C18.6,9.3,16,8.5,12.6,8.8z M19.6,22.1c-1.8-0.1-3.6-1.3-5.4-3.6
						c-0.2-0.2-0.4-0.5-0.7-0.8c2.4,1,5.9,2.5,8.4,3.8C21.5,21.9,20.7,22.2,19.6,22.1L19.6,22.1z M13,16.6c2.2,0,5.6,0.3,7.7,1.9
						c0.8,0.6,1.3,1.4,1.5,2.2C19.4,19.3,15.4,17.6,13,16.6z M37.4,12.1c0,0-0.9,1.2-2.1,3.9c-0.4,0.9-2.3,3.1-3.9,3.7
						c-0.9,0.3-1.1,0.4-1.9-0.5c-0.3-0.5-0.6-1.2-0.5-1.4c0.3-0.2,0.6-0.4,0.8-0.4c2.2-1,3.1-1.6,3.7-2.5c1.1-1.6,2.7-2.4,4.1-2.8
						C37.5,12.1,37.5,12.1,37.4,12.1L37.4,12.1z M32.7,14.4c-0.5,0.8-1.3,1.3-3.3,2.2c-0.2,0.1-0.5,0.3-0.9,0.5
						c-0.2-0.1-0.9-0.7-0.8-1.4c0.1-0.9,1.4-1.8,3.6-2.6c0,0,1.3-0.5,2-1c0.9-0.7,2.6-1.4,4.3-1.4c0.4,0,0.7,0,1.1,0.1
						C37.1,11.1,34.4,11.9,32.7,14.4z"/>
				</g>
				<path class="st9" d="M25.3,23.6c0.3,0.7,0.6,1.6,0.7,2.8c0.1,0.6,0.1,1.1,0.1,1.6"/>
			</g>
		</g>
		<text transform="matrix(1 0 0 1 67.46 58.19)" class="st10 st11 st12">P</text>
		<text transform="matrix(1 0 0 1 97.01 58.19)" class="st10 st11 st12">elin Kozmetik</text>
		<rect x="63.6" y="63.4" class="st0" width="297.2" height="8.1"/>
	</g>
</g>
</svg>
