<svg width="512" height="512" viewBox="0 0 512 512" fill="none" xmlns="http://www.w3.org/2000/svg">
<path d="M304 384V360C304 331 335.54 303.57 356 284C384.84 256.43 400 219.39 400 176C400 96.0001 336.27 32.0001 256 32.0001C237.074 31.9473 218.325 35.6359 200.831 42.8539C183.336 50.0719 167.441 60.6768 154.058 74.059C140.676 87.4411 130.071 103.337 122.853 120.831C115.635 138.326 111.947 157.075 112 176C112 217.84 127.81 257.39 156 284C176.35 303.21 208 330.7 208 360V384M224 480H288M208 432H304M256 384V256" stroke="#19223E" stroke-width="16" stroke-linecap="round" stroke-linejoin="round"/>
<path d="M294 240C294 240 272.49 256 256 256C239.51 256 218 240 218 240" stroke="#19223E" stroke-width="16" stroke-linecap="round" stroke-linejoin="round"/>
</svg>
