<?xml version="1.0" encoding="UTF-8"?>
<svg id="katman_2" data-name="katman 2" xmlns="http://www.w3.org/2000/svg" viewBox="0 0 355.81 386.35">
  <defs>
    <style>
      .cls-1, .cls-2 {
        fill: #ededed;
      }

      .cls-3 {
        fill: #fff;
      }

      .cls-4 {
        fill: #19223e;
      }

      .cls-2, .cls-5 {
        stroke: #1d1d1b;
        stroke-miterlimit: 10;
      }

      .cls-5 {
        fill: none;
      }
    </style>
  </defs>
  <g id="katman_1" data-name="katman 1">
    <g>
      <polygon class="cls-4" points="278.63 31.11 239.44 316.73 206.52 333.97 137.24 333.97 104.63 317.04 65.76 31.11 278.63 31.11"/>
      <polygon class="cls-5" points="65.76 31.11 278.63 31.11 239.44 316.73 206.52 333.97 137.24 333.97 104.63 317.04 65.76 31.11"/>
    </g>
    <g>
      <polygon class="cls-3" points="285.49 .5 278.63 31.11 65.76 31.11 59.27 .5 285.49 .5"/>
      <polygon class="cls-5" points="65.76 31.11 59.27 .5 285.49 .5 278.63 31.11 65.76 31.11"/>
    </g>
    <line class="cls-5" x1="80.93" y1="8.92" x2="80.93" y2="25.44"/>
    <line class="cls-5" x1="99.14" y1="8.92" x2="99.14" y2="25.44"/>
    <line class="cls-5" x1="117.35" y1="8.92" x2="117.35" y2="25.44"/>
    <line class="cls-5" x1="135.56" y1="8.92" x2="135.56" y2="25.44"/>
    <line class="cls-5" x1="153.77" y1="8.92" x2="153.77" y2="25.44"/>
    <line class="cls-5" x1="171.98" y1="8.92" x2="171.98" y2="25.44"/>
    <line class="cls-5" x1="190.2" y1="8.92" x2="190.2" y2="25.44"/>
    <line class="cls-5" x1="208.41" y1="8.92" x2="208.41" y2="25.44"/>
    <line class="cls-5" x1="226.62" y1="8.92" x2="226.62" y2="25.44"/>
    <line class="cls-5" x1="244.83" y1="8.92" x2="244.83" y2="25.44"/>
    <line class="cls-5" x1="263.04" y1="8.92" x2="263.04" y2="25.44"/>
    <g>
      <polygon class="cls-3" points="207.01 334.47 207.11 355.12 136.97 355.12 136.97 334.47 207.01 334.47"/>
      <polygon class="cls-5" points="136.97 334.47 136.97 355.12 207.11 355.12 207.01 334.47 136.97 334.47"/>
    </g>
    <g>
      <polygon class="cls-1" points="206.56 355.12 136.96 355.12 136.96 341.86 206.56 355.12"/>
      <polygon class="cls-5" points="206.56 355.12 136.96 341.86 136.96 355.12 206.56 355.12"/>
    </g>
    <g>
      <rect class="cls-3" x="117.71" y="354.32" width="108.45" height="31.53"/>
      <rect class="cls-5" x="117.71" y="354.32" width="108.45" height="31.53"/>
    </g>
    <line class="cls-2" x1=".43" y1="385.85" x2="344.72" y2="385.85"/>
    <ellipse class="cls-2" cx="171.98" cy="170.34" rx="54.64" ry="111.52"/>
    <g>
      <path class="cls-3" d="M346.76,82.86c3.65,2.61,8.28,1.14,8.54,2.35,.23,1.11-3.86,1.62-6.29,5.11-2.75,3.98-1.38,8.99-2.34,9.12-.81,.11-.88-3.56-3.61-6.26-3.56-3.51-8.75-2.6-8.91-4.11-.16-1.43,4.53-1.64,6.7-5.32,2.15-3.62,.4-8.13,1.14-8.29,.75-.16,1.15,4.82,4.77,7.4Z"/>
      <path class="cls-5" d="M341.99,75.46c-.74,.17,1.01,4.67-1.14,8.29-2.17,3.67-6.86,3.89-6.7,5.32,.16,1.51,5.36,.59,8.91,4.11,2.73,2.71,2.81,6.37,3.61,6.26,.95-.14-.42-5.14,2.34-9.12,2.43-3.49,6.53-4.01,6.29-5.11-.26-1.2-4.89,.26-8.54-2.35-3.62-2.58-4.02-7.56-4.77-7.4Z"/>
    </g>
    <g>
      <path class="cls-3" d="M304.99,229.95c2.2,3.91,7.01,4.56,6.73,5.76-.26,1.1-4.18-.18-7.87,1.94-4.18,2.43-5.08,7.54-6,7.26-.77-.25,.72-3.59-.6-7.2-1.72-4.69-6.81-6.08-6.31-7.51,.47-1.36,4.8,.44,8.33-1.96,3.49-2.36,3.82-7.18,4.56-7.02,.75,.18-1.01,4.85,1.17,8.73Z"/>
      <path class="cls-5" d="M303.83,221.23c-.74-.17-1.08,4.66-4.56,7.02-3.53,2.4-7.86,.6-8.33,1.96-.49,1.43,4.59,2.82,6.31,7.51,1.32,3.61-.17,6.96,.6,7.2,.92,.28,1.82-4.83,6-7.26,3.69-2.12,7.61-.84,7.87-1.94,.27-1.2-4.54-1.85-6.73-5.76-2.17-3.88-.42-8.55-1.17-8.73Z"/>
    </g>
    <g>
      <path class="cls-3" d="M331.14,46.88c1.88,4.07,6.62,5.1,6.26,6.27-.35,1.08-4.15-.51-8,1.32-4.36,2.09-5.66,7.12-6.55,6.76-.75-.31,1-3.52-.03-7.23-1.35-4.82-6.31-6.6-5.7-7.99,.57-1.32,4.75,.82,8.46-1.3,3.66-2.07,4.38-6.86,5.1-6.63,.73,.24-1.39,4.75,.47,8.79Z"/>
      <path class="cls-5" d="M330.66,38.09c-.73-.22-1.44,4.56-5.1,6.63-3.71,2.11-7.88-.02-8.46,1.3-.61,1.39,4.36,3.17,5.7,7.99,1.03,3.71-.72,6.92,.03,7.23,.9,.35,2.19-4.67,6.55-6.76,3.85-1.83,7.65-.24,8-1.32,.37-1.17-4.38-2.2-6.26-6.27-1.86-4.04,.26-8.55-.47-8.79Z"/>
    </g>
    <g>
      <path class="cls-3" d="M13.34,120.4c3.55,2.74,8.23,1.45,8.45,2.66,.19,1.11-3.92,1.47-6.48,4.87-2.9,3.87-1.72,8.93-2.67,9.03-.81,.08-.75-3.59-3.38-6.39-3.42-3.64-8.65-2.92-8.75-4.44-.1-1.43,4.59-1.48,6.89-5.07,2.29-3.54,.7-8.1,1.45-8.24,.76-.13,.97,4.86,4.49,7.57Z"/>
      <path class="cls-5" d="M8.85,112.83c-.75,.14,.84,4.71-1.45,8.24-2.31,3.59-7,3.63-6.89,5.07,.11,1.51,5.33,.79,8.75,4.44,2.63,2.81,2.57,6.47,3.38,6.39,.96-.1-.22-5.16,2.67-9.03,2.56-3.4,6.67-3.76,6.48-4.87-.22-1.21-4.9,.08-8.45-2.66-3.52-2.72-3.73-7.7-4.49-7.57Z"/>
    </g>
  </g>
</svg>